<svg xmlns="http://www.w3.org/2000/svg" viewBox="0 0 1067.958 239.247">
  <defs>
    <clipPath clipPathUnits="userSpaceOnUse" id="a">
      <path d="M0 800h1280V0H0z"/>
    </clipPath>
  </defs>
  <g transform="matrix(1.33333 0 0 -1.33333 -321.183 663.454)" clip-path="url(#a)" fill="#09cef6">
    <path d="M796.06 358.676c-30.781 0-43.656 26.125-43.656 49.208 0 23.106 14.11 48.682 43.656 48.682s43.7-25.576 43.7-48.682c0-23.083-12.92-49.208-43.7-49.208m0 131.416c-56.571 0-81.927-35.214-81.927-82.23 0-47.014 25.84-82.206 81.928-82.206 56.086 0 81.996 40.834 81.996 82.207 0 41.375-25.424 82.229-81.996 82.229m-404.103-5.462h-26.941c-12.102 0-17.858-3.066-24.841-10.579l-53.605-54.997v60.833c0 2.3-1.446 4.446-4.196 4.446H252.75c-2.938 0-4.362-1.833-4.362-4.446v-145.22a3.463 3.463 0 013.448-3.452h31.266c1.905 0 3.469 1.546 3.469 3.452v62.062l55.343-59.385c4.752-4.844 12.255-7.067 21.586-7.067h26.955c8.93 0 5.628 5.14 5.628 5.14L326.8 407.375l69.538 72.187s4.569 5.067-4.38 5.067m159.184.001h-26.94c-12.103 0-17.859-3.066-24.842-10.579l-53.605-54.997v60.833c0 2.3-1.446 4.446-4.196 4.446h-29.625c-2.938 0-4.362-1.833-4.362-4.446v-145.22a3.463 3.463 0 013.448-3.452h31.266c1.905 0 3.47 1.546 3.47 3.452v62.062l55.342-59.385c4.752-4.844 12.255-7.067 21.586-7.067h26.955c8.93 0 5.628 5.14 5.628 5.14l-69.283 71.958 69.538 72.187s4.57 5.067-4.38 5.067"/>
    <path d="M1034 335.882l-53 73.368 49.396 70.313s4.57 5.067-4.36 5.067h-25.869c-11.299 0-16.166-.13-21.53-7.891l-23.803-36.905-24.584 37.37c-5.566 6.824-12.135 7.426-23.56 7.426h-23.507c-8.973 0-4.593-5.067-4.593-5.067l50.66-70.313-53.97-73.833s-3.278-5.14 5.65-5.14h23.904c7.067 0 16.834-1.111 22.318 6.198.105.138 27.682 41.523 27.682 41.523s27.195-40.72 27.301-40.804c5.502-7.528 14.748-6.916 21.836-6.916h23.703c8.949 0 6.326 5.604 6.326 5.604m-399.365 23.425c17.77 0 24.39 5.949 24.39 17.308v.36c0 12.44-8.021 18.347-23.187 18.347h-26.42v-35.436zm-2.85 63.057c15.009 0 23.04 3.638 23.04 16.76v.745c0 10.13-7.251 15.05-24.086 15.05l-21.32-.383v-32.172zm-56.93 62.88h72.579c33.984 0 47.914-20.244 47.914-39.35 0-15.758-11.348-28.894-24.352-34.925 17.427-6.944 30.2-16.891 30.2-40.204 0-25.8-18.396-40.261-49.886-40.261h-77.156c-2.904 0-4.924 2.12-4.924 5.12v143.934c0 3.567 2.395 5.687 5.625 5.687"/>
  </g>
</svg>