<svg xmlns="http://www.w3.org/2000/svg" width="44" height="44" fill="none" viewBox="0 0 44 44">
    <path fill="#232323" fill-rule="evenodd" d="M22 43c11.598 0 21-9.402 21-21S33.598 1 22 1 1 10.402 1 22s9.402 21 21 21zm0 1c12.15 0 22-9.85 22-22S34.15 0 22 0 0 9.85 0 22s9.85 22 22 22z" clip-rule="evenodd"/>
    <path fill="#232323" fill-rule="evenodd" d="M15.714 15.5c-.102 0-.214.093-.214.237v10.388c0 .276-.224.5-.5.5s-.5-.224-.5-.5V15.737c0-.667.53-1.237 1.214-1.237h3.572c.683 0 1.214.57 1.214 1.237v12.526c0 .667-.53 1.237-1.214 1.237H15c-.276 0-.5-.224-.5-.5s.224-.5.5-.5h4.286c.102 0 .214-.093.214-.237V15.737c0-.144-.112-.237-.214-.237h-3.572zM24.714 15.5c-.102 0-.214.093-.214.237v12.526c0 .144.112.237.214.237h3.572c.102 0 .214-.093.214-.237V17.875c0-.276.224-.5.5-.5s.5.224.5.5v10.388c0 .667-.53 1.237-1.214 1.237h-3.572c-.683 0-1.214-.57-1.214-1.237V15.737c0-.667.53-1.237 1.214-1.237H29c.276 0 .5.224.5.5s-.224.5-.5.5h-4.286z" clip-rule="evenodd"/>
</svg>