<svg xmlns="http://www.w3.org/2000/svg" width="44" height="44" fill="none" viewBox="0 0 44 44">
    <path fill="#232323" fill-rule="evenodd" d="M22 43c11.598 0 21-9.402 21-21S33.598 1 22 1 1 10.402 1 22s9.402 21 21 21zm0 1c12.15 0 22-9.85 22-22S34.15 0 22 0 0 9.85 0 22s9.85 22 22 22z" clip-rule="evenodd"/>
    <path fill="#232323" fill-rule="evenodd" d="M18.218 14.17l.001.001 10.732 6.649h.001c.345.213.548.598.548.997s-.203.784-.549.996l-.002.002-11.69 7.112c-.235.144-.543.069-.686-.167-.144-.236-.069-.544.167-.687l11.688-7.112c.035-.022.072-.076.072-.144 0-.07-.037-.123-.072-.145l-.002-.001-10.74-6.654c-.035-.022-.074-.024-.113 0-.036.02-.073.07-.073.148v10.96c0 .276-.224.5-.5.5s-.5-.224-.5-.5v-10.96c0-.405.203-.795.563-1.008.355-.21.795-.212 1.155.013z" clip-rule="evenodd"/>
</svg>