<svg xmlns="http://www.w3.org/2000/svg" width="32" height="32" fill="none" viewBox="0 0 32 32">
    <path fill="#ffffff" fill-rule="evenodd" d="M9.838 5.202h.002l15.206 9.088c.424.251.684.717.684 1.21 0 .494-.26.959-.684 1.21l-.002.001-16.56 9.72c-.239.14-.545.06-.685-.178s-.06-.544.178-.684l16.559-9.72s0 .001 0 0c.115-.068.194-.203.194-.349 0-.146-.079-.281-.194-.35h-.002L9.321 6.056c-.121-.073-.267-.075-.392-.003-.119.068-.198.199-.198.356v15.18c0 .276-.224.5-.5.5-.277 0-.5-.224-.5-.5V6.41c0-.503.26-.972.701-1.224.434-.248.968-.25 1.406.016z" clip-rule="evenodd"/>
</svg>