<svg xmlns="http://www.w3.org/2000/svg" width="24" height="24" fill="none" viewBox="0 0 24 24">
    <path fill="#232323" fill-rule="evenodd" d="M11.647 5.44c.324-.186.732-.194 1.066.022.298.194.5.537.5.907v11.243c0 .37-.188.72-.5.916-.18.12-.379.162-.554.162-.15 0-.338-.027-.521-.137l-.032-.019-4.838-3.974h-3.11c-.727 0-1.358-.577-1.358-1.326v-2.479c0-.746.62-1.326 1.359-1.326H6.76l4.85-3.969.037-.02zm.516.86l-5.046 4.13H3.659c-.22 0-.36.163-.36.325v2.479c0 .16.146.326.36.326h3.467l5.028 4.13h.011l.003-.002.015-.009c.003-.002.01-.008.018-.021.007-.013.012-.03.012-.046V6.369c0-.01-.013-.047-.045-.068h-.002V6.3h-.003z" clip-rule="evenodd"/>
</svg>