<svg xmlns="http://www.w3.org/2000/svg" width="24" height="24" fill="none" viewBox="0 0 24 24">
    <path fill="#232323" fill-rule="evenodd" d="M11.647 5.44c.324-.186.732-.194 1.066.022.298.194.5.537.5.907v11.243c0 .37-.188.72-.5.916-.18.12-.379.162-.554.162-.15 0-.338-.027-.521-.137l-.032-.019-4.838-3.974h-3.11c-.727 0-1.358-.577-1.358-1.326v-2.479c0-.746.62-1.326 1.359-1.326H6.76l4.85-3.969.037-.02zm.516.86l-5.046 4.13H3.659c-.22 0-.36.163-.36.325v2.479c0 .16.146.326.36.326h3.467l5.028 4.13h.011l.003-.002.015-.009c.003-.002.01-.008.018-.021.007-.013.012-.03.012-.046V6.369c0-.01-.013-.047-.045-.068h-.002V6.3h-.003zm2.709 3.5c.213-.176.528-.146.704.066l-.385.32.385-.32v.001l.002.001.002.003.005.007.017.021.053.072c.043.06.1.145.161.253.124.215.271.524.37.906.202.779.192 1.838-.583 2.965-.156.228-.468.285-.695.13-.228-.157-.285-.469-.129-.696.588-.856.579-1.61.44-2.149-.072-.276-.18-.502-.27-.657-.044-.078-.083-.136-.11-.174l-.029-.04-.005-.006c-.175-.212-.146-.526.067-.702z" clip-rule="evenodd"/>
</svg>